<?xml version="1.0" encoding="UTF-8"?>
<svg id="Layer_1" xmlns="http://www.w3.org/2000/svg" version="1.1" viewBox="0 0 1765 442">
  <defs>
    <style>
      .st0 {
        fill: none;
        stroke: red;
        stroke-linecap: round;
        stroke-linejoin: round;
        stroke-width: 5px;
      }
    </style>
  </defs>
  <path class="st0" d="M597.5,18.5c140.52-11.96,325.57-2.38,427-2-27.23,1.06-72.01,10.84-122.5,34.75-61.25,29-122.5,91.25-122.5,174.25,0,162,216,202,216,202-100.52,5.85-230,9-429-5C380.64,409.42,12.5,339.65,12.5,220.5,12.5,82.5,456.5,30.5,597.5,18.5Z"/>
  <polygon class="st0" points="132.5 279.5 132.5 135.5 196.5 135.5 268.5 223.5 268.5 135.5 326.5 135.5 326.5 279.5 260.5 279.5 191.5 195.5 191.5 280.5 132.5 279.5"/>
  <path class="st0" d="M541.5,279.5h-152c-3,0-36-8-36-38v-71c0-21,23-35,42-35h117c22,0,35,20,35,29v31c0,24-23,32-38,32h-98s-2,22,22,22h108v30Z"/>
  <path class="st0" d="M412.5,197.5h67c4.35,0,11-4,11-13v-6c0-6-7.89-14-23-14h-36c-9.96,0-19,3-19,12v21Z"/>
  <path class="st0" d="M600.5,136.5h150v152c0,24-29,31-45,31h-129v-31h106c11,0,10-10,10-10,0,0-75,1-99,1-5.15,0-35-6.96-35-30,0-19-1-76-1-84,0-11.41,15.03-29,43-29Z"/>
  <path class="st0" d="M694.5,164.5v73c0,4.16-3.22,10-9,10h-62c-4,0-8-1-8-7v-64c0-7.02,6-12,19-12h60Z"/>
  <path class="st0" d="M1036.5,265.5h-145c-5,0-33-6-33-36v-65c0-21,20-33,39-33h112c22,0,33,21,33,30v21c0,24-25,32-37,32h-98s-3,30,21,30h108v21Z"/>
  <path class="st0" d="M907.5,193.5h68c11,0,18-7,18-16v-10c0-6-4.89-15-20-15h-47c-9.96,0-19,5-19,12v29Z"/>
  <path class="st0" d="M1073.5,131.5s122,1,145,1c11.61,0,35,10.76,35,32v101h-149c-28.15,0-37-23.13-37-33v-29c0-21.73,29.08-32,40-32h97s1-19-20-19h-111v-21Z"/>
  <path class="st0" d="M1203.5,192.5v52h-72c-5.08,0-15-6-15-18v-18c0-3.9,4.2-16,22-16h65Z"/>
  <path class="st0" d="M1283.5,265.5v-134h143c25,0,41,13,41,43,0,41-40,40-40,40l39,51h-37l-39-51h-59l-1,51h-47Z"/>
  <path class="st0" d="M1331.5,152.5h69c9.26,0,17,4,17,13v15c0,10-8.82,13-20,13h-66v-41Z"/>
  <path class="st0" d="M1446.5,91.5h173v115s46.1-57.92,52-65c5-6,8.17-10,17-10h31c23,0,34,13,35,28,1.26,18.96,0,106,0,106h-47v-101c0-4-2-8-6-8h-6l-86,109h-40V112.5h-23v152h-49l1-152h-52v-21Z"/>
</svg>